<svg viewBox="0 0 1280 800" xmlns="http://www.w3.org/2000/svg" font-family="-apple-system, 'Segoe UI', sans-serif" role="img" aria-label="Maestro IDE multi-agent room">
  <rect width="1280" height="800" rx="14" fill="#03111E"/>
  <rect x="0" y="0" width="1280" height="42" rx="14" fill="#0B1F2E"/>
  <rect x="0" y="28" width="1280" height="14" fill="#0B1F2E"/>
  <circle cx="24" cy="21" r="6" fill="#e86a8a"/><circle cx="44" cy="21" r="6" fill="#f2b75c"/><circle cx="64" cy="21" r="6" fill="#5fd3a2"/>
  <text x="640" y="26" text-anchor="middle" fill="#93A9B8" font-size="12.5">Room — launch-week · 3 agents · bound to Telegram group · Maestro IDE</text>

  <!-- left: sessions -->
  <rect x="0" y="42" width="252" height="758" fill="#071A28"/>
  <line x1="252" y1="42" x2="252" y2="800" stroke="#1B3242"/>
  <text x="18" y="74" fill="#5E7A8C" font-size="10.5" letter-spacing="2" font-family="ui-monospace, Menlo, monospace">ROOMS</text>
  <rect x="10" y="86" width="232" height="42" rx="8" fill="#12293A"/>
  <text x="24" y="112" fill="#E8F0F6" font-size="13" font-weight="600"># launch-week</text>
  <text x="24" y="154" fill="#93A9B8" font-size="13"># support-triage</text>
  <text x="18" y="196" fill="#5E7A8C" font-size="10.5" letter-spacing="2" font-family="ui-monospace, Menlo, monospace">SESSIONS · BY SOURCE</text>
  <text x="24" y="224" fill="#93A9B8" font-size="12.5">▾ telegram (4)</text>
  <text x="38" y="250" fill="#93A9B8" font-size="12.5">daily-briefing</text>
  <text x="38" y="274" fill="#93A9B8" font-size="12.5">travel-plan</text>
  <text x="24" y="300" fill="#93A9B8" font-size="12.5">▸ ide (11)</text>
  <text x="24" y="326" fill="#93A9B8" font-size="12.5">▸ console (3)</text>

  <!-- members -->
  <text x="18" y="372" fill="#5E7A8C" font-size="10.5" letter-spacing="2" font-family="ui-monospace, Menlo, monospace">MEMBERS</text>
  <circle cx="28" cy="396" r="8" fill="#4fc3e8"/><text x="44" y="401" fill="#C2D2DC" font-size="12.5">researcher</text>
  <circle cx="28" cy="424" r="8" fill="#8b7cf7"/><text x="44" y="429" fill="#C2D2DC" font-size="12.5">writer</text>
  <circle cx="28" cy="452" r="8" fill="#f2b75c"/><text x="44" y="457" fill="#C2D2DC" font-size="12.5">critic</text>
  <text x="18" y="496" fill="#5E7A8C" font-size="11" font-family="ui-monospace, Menlo, monospace">policy: moderator</text>

  <!-- chat area -->
  <g>
    <!-- compression marker -->
    <line x1="290" y1="86" x2="1240" y2="86" stroke="#1B3242" stroke-dasharray="4 6"/>
    <text x="640" y="80" text-anchor="middle" fill="#5E7A8C" font-size="10.5" font-family="ui-monospace, Menlo, monospace">— 46 earlier turns compressed · originals kept in the event log —</text>

    <!-- user msg -->
    <rect x="290" y="106" width="700" height="64" rx="12" fill="#12293A"/>
    <text x="310" y="132" fill="#5E7A8C" font-size="10.5" font-family="ui-monospace, Menlo, monospace">YOU · via telegram</text>
    <text x="310" y="156" fill="#E8F0F6" font-size="13.5">@researcher pull the latest reviews of our beta. @writer draft the launch post from them.</text>

    <!-- researcher -->
    <circle cx="306" cy="204" r="10" fill="#4fc3e8"/><text x="306" y="208" text-anchor="middle" fill="#03111E" font-size="10" font-weight="700">R</text>
    <rect x="326" y="186" width="820" height="116" rx="12" fill="#0B1F2E" stroke="#1B3242"/>
    <text x="346" y="212" fill="#4fc3e8" font-size="11" font-family="ui-monospace, Menlo, monospace">researcher · web_search → web_extract (3 pages)</text>
    <text x="346" y="238" fill="#C2D2DC" font-size="13">Pulled 27 beta reviews. Recurring themes: the live agent map (18 mentions, all positive),</text>
    <text x="346" y="260" fill="#C2D2DC" font-size="13">routing fallbacks "saved a demo" (5), requests for Linux ARM builds (4).</text>
    <text x="346" y="286" fill="#5E7A8C" font-size="11.5" font-family="ui-monospace, Menlo, monospace">▸ tool trace · 6 calls · 8.2s · $0.03</text>

    <!-- writer -->
    <circle cx="306" cy="336" r="10" fill="#8b7cf7"/><text x="306" y="340" text-anchor="middle" fill="#03111E" font-size="10" font-weight="700">W</text>
    <rect x="326" y="318" width="820" height="130" rx="12" fill="#0B1F2E" stroke="#1B3242"/>
    <text x="346" y="344" fill="#8b7cf7" font-size="11" font-family="ui-monospace, Menlo, monospace">writer · model: claude-sonnet-5 · streaming</text>
    <text x="346" y="370" fill="#C2D2DC" font-size="13">Draft: "You shouldn't have to guess what your agents are doing. Maestro shows you —</text>
    <text x="346" y="392" fill="#C2D2DC" font-size="13">every agent, every node, live. This week we're opening the beta to everyone…"</text>
    <text x="346" y="418" fill="#C2D2DC" font-size="13">Want the long or short version for the Telegram channel?</text>
    <text x="346" y="440" fill="#5E7A8C" font-size="11.5" font-family="ui-monospace, Menlo, monospace">▍streaming…</text>

    <!-- critic -->
    <circle cx="306" cy="484" r="10" fill="#f2b75c"/><text x="306" y="488" text-anchor="middle" fill="#03111E" font-size="10" font-weight="700">C</text>
    <rect x="326" y="466" width="820" height="88" rx="12" fill="#0B1F2E" stroke="#1B3242"/>
    <text x="346" y="492" fill="#f2b75c" font-size="11" font-family="ui-monospace, Menlo, monospace">critic · selected by moderator</text>
    <text x="346" y="518" fill="#C2D2DC" font-size="13">Flag: "opening the beta to everyone" — confirm the date before publishing.</text>
    <text x="346" y="540" fill="#C2D2DC" font-size="13">Suggest a Human Approval step before this posts anywhere.</text>
  </g>

  <!-- composer -->
  <rect x="290" y="700" width="856" height="56" rx="12" fill="#0B1F2E" stroke="#1B3242"/>
  <text x="312" y="734" fill="#5E7A8C" font-size="13">@critic run your checklist, then /run publish-flow …</text>
  <rect x="1160" y="700" width="80" height="56" rx="12" fill="#3EAF86"/>
  <text x="1200" y="734" text-anchor="middle" fill="#0d0a1f" font-size="13" font-weight="700">Send</text>
  <text x="290" y="782" fill="#5E7A8C" font-size="11" font-family="ui-monospace, Menlo, monospace">/model /skill /memory /run · interrupt any time — agents keep their context</text>
</svg>
