<svg viewBox="0 0 1280 800" xmlns="http://www.w3.org/2000/svg" font-family="-apple-system, 'Segoe UI', sans-serif" role="img" aria-label="Maestro Studio MRGD inspector">
  <rect width="1280" height="800" rx="14" fill="#03111E"/>
  <rect x="0" y="0" width="1280" height="42" rx="14" fill="#0B1F2E"/>
  <rect x="0" y="28" width="1280" height="14" fill="#0B1F2E"/>
  <circle cx="24" cy="21" r="6" fill="#e86a8a"/><circle cx="44" cy="21" r="6" fill="#f2b75c"/><circle cx="64" cy="21" r="6" fill="#5fd3a2"/>
  <text x="640" y="26" text-anchor="middle" fill="#93A9B8" font-size="12.5">MRGD inspector — run #128 · node mrgd-decode · Maestro Studio</text>

  <text x="48" y="94" fill="#E8F0F6" font-size="24" font-weight="650">MRGD inspector</text>
  <text x="48" y="120" fill="#93A9B8" font-size="13">Round 3 of 7 · k=5 candidates · T=1 sentence · s = <tspan fill="#3EAF86">0.75</tspan>·r_hal + <tspan fill="#4fc3e8">0.25</tspan>·r_rec · preset: precision</text>

  <!-- rounds strip -->
  <g font-family="ui-monospace, Menlo, monospace" font-size="11.5">
    <rect x="48" y="140" width="72" height="30" rx="15" fill="#12293A"/><text x="84" y="159" text-anchor="middle" fill="#5fd3a2">R1 ✓</text>
    <rect x="130" y="140" width="72" height="30" rx="15" fill="#12293A"/><text x="166" y="159" text-anchor="middle" fill="#5fd3a2">R2 ✓</text>
    <rect x="212" y="140" width="72" height="30" rx="15" fill="#3EAF86"/><text x="248" y="159" text-anchor="middle" fill="#0d0a1f" font-weight="700">R3 ●</text>
    <rect x="294" y="140" width="72" height="30" rx="15" fill="#0B1F2E" stroke="#1B3242"/><text x="330" y="159" text-anchor="middle" fill="#5E7A8C">R4</text>
    <rect x="376" y="140" width="72" height="30" rx="15" fill="#0B1F2E" stroke="#1B3242"/><text x="412" y="159" text-anchor="middle" fill="#5E7A8C">R5</text>
  </g>

  <!-- candidates -->
  <g>
    <!-- candidate 1 -->
    <rect x="48" y="196" width="1184" height="92" rx="10" fill="#0B1F2E" stroke="#1B3242"/>
    <text x="70" y="224" fill="#5E7A8C" font-size="10.5" font-family="ui-monospace, Menlo, monospace">CANDIDATE 1</text>
    <text x="70" y="250" fill="#C2D2DC" font-size="13">"A black otter rests on the grass beside two orange frisbees."</text>
    <rect x="70" y="264" width="360" height="8" rx="4" fill="#12293A"/><rect x="70" y="264" width="328" height="8" rx="4" fill="#3EAF86"/>
    <text x="444" y="272" fill="#3EAF86" font-size="11" font-family="ui-monospace, Menlo, monospace">r_hal 0.91</text>
    <rect x="560" y="264" width="360" height="8" rx="4" fill="#12293A"/><rect x="560" y="264" width="252" height="8" rx="4" fill="#4fc3e8"/>
    <text x="934" y="272" fill="#4fc3e8" font-size="11" font-family="ui-monospace, Menlo, monospace">r_rec 0.70</text>
    <text x="1160" y="250" fill="#E8F0F6" font-size="16" font-weight="700" font-family="ui-monospace, Menlo, monospace">0.86</text>

    <!-- candidate 2 — selected -->
    <rect x="48" y="300" width="1184" height="92" rx="10" fill="#0A2921" stroke="#3EAF86" stroke-width="2"/>
    <text x="70" y="328" fill="#3EAF86" font-size="10.5" font-family="ui-monospace, Menlo, monospace">CANDIDATE 2 — SELECTED ✓</text>
    <text x="70" y="354" fill="#E8F0F6" font-size="13">"A black otter lies on the grass, a frisbee resting near its front paws."</text>
    <rect x="70" y="368" width="360" height="8" rx="4" fill="#12293A"/><rect x="70" y="368" width="335" height="8" rx="4" fill="#3EAF86"/>
    <text x="444" y="376" fill="#3EAF86" font-size="11" font-family="ui-monospace, Menlo, monospace">r_hal 0.93</text>
    <rect x="560" y="368" width="360" height="8" rx="4" fill="#12293A"/><rect x="560" y="368" width="266" height="8" rx="4" fill="#4fc3e8"/>
    <text x="934" y="376" fill="#4fc3e8" font-size="11" font-family="ui-monospace, Menlo, monospace">r_rec 0.74</text>
    <text x="1160" y="354" fill="#5fd3a2" font-size="16" font-weight="700" font-family="ui-monospace, Menlo, monospace">0.87</text>

    <!-- candidate 3 -->
    <rect x="48" y="404" width="1184" height="92" rx="10" fill="#0B1F2E" stroke="#1B3242"/>
    <text x="70" y="432" fill="#5E7A8C" font-size="10.5" font-family="ui-monospace, Menlo, monospace">CANDIDATE 3</text>
    <text x="70" y="458" fill="#C2D2DC" font-size="13">"A brown bear sits in a park with several frisbees and a small boat."</text>
    <rect x="70" y="472" width="360" height="8" rx="4" fill="#12293A"/><rect x="70" y="472" width="130" height="8" rx="4" fill="#e86a8a"/>
    <text x="444" y="480" fill="#e86a8a" font-size="11" font-family="ui-monospace, Menlo, monospace">r_hal 0.36</text>
    <rect x="560" y="472" width="360" height="8" rx="4" fill="#12293A"/><rect x="560" y="472" width="295" height="8" rx="4" fill="#4fc3e8"/>
    <text x="934" y="480" fill="#4fc3e8" font-size="11" font-family="ui-monospace, Menlo, monospace">r_rec 0.82</text>
    <text x="1160" y="458" fill="#93A9B8" font-size="16" font-weight="700" font-family="ui-monospace, Menlo, monospace">0.48</text>

    <!-- candidate 4 -->
    <rect x="48" y="508" width="1184" height="92" rx="10" fill="#0B1F2E" stroke="#1B3242"/>
    <text x="70" y="536" fill="#5E7A8C" font-size="10.5" font-family="ui-monospace, Menlo, monospace">CANDIDATE 4</text>
    <text x="70" y="562" fill="#C2D2DC" font-size="13">"An otter on grass; nearby, a disc and its shadow."</text>
    <rect x="70" y="576" width="360" height="8" rx="4" fill="#12293A"/><rect x="70" y="576" width="306" height="8" rx="4" fill="#3EAF86"/>
    <text x="444" y="584" fill="#3EAF86" font-size="11" font-family="ui-monospace, Menlo, monospace">r_hal 0.85</text>
    <rect x="560" y="576" width="360" height="8" rx="4" fill="#12293A"/><rect x="560" y="576" width="205" height="8" rx="4" fill="#4fc3e8"/>
    <text x="934" y="584" fill="#4fc3e8" font-size="11" font-family="ui-monospace, Menlo, monospace">r_rec 0.57</text>
    <text x="1160" y="562" fill="#93A9B8" font-size="16" font-weight="700" font-family="ui-monospace, Menlo, monospace">0.78</text>
  </g>

  <!-- footer stats -->
  <rect x="48" y="622" width="1184" height="144" rx="10" fill="#020C16" stroke="#1B3242"/>
  <text x="70" y="652" fill="#5E7A8C" font-size="10.5" letter-spacing="2" font-family="ui-monospace, Menlo, monospace">RUN COST · MRGD MULTIPLIER</text>
  <text x="70" y="684" fill="#C2D2DC" font-size="13">Estimated before run: <tspan fill="#E8F0F6" font-weight="700">$0.19</tspan> (~5.2× base sampling) · Actual so far: <tspan fill="#5fd3a2" font-weight="700">$0.11</tspan></text>
  <text x="70" y="712" fill="#C2D2DC" font-size="13">Adjust weights live — no retraining, no redeploy. Drag w toward precision or recall between runs.</text>
  <rect x="70" y="728" width="500" height="8" rx="4" fill="#12293A"/>
  <rect x="70" y="728" width="375" height="8" rx="4" fill="#3EAF86"/>
  <circle cx="445" cy="732" r="9" fill="#E8F0F6"/>
  <text x="590" y="738" fill="#93A9B8" font-size="11.5" font-family="ui-monospace, Menlo, monospace">w = 0.75 · precision ◂──▸ recall</text>
</svg>
