<svg viewBox="0 0 1280 800" xmlns="http://www.w3.org/2000/svg" font-family="-apple-system, 'Segoe UI', sans-serif" role="img" aria-label="Maestro IDE routing matrix editor">
  <rect width="1280" height="800" rx="14" fill="#03111E"/>
  <rect x="0" y="0" width="1280" height="42" rx="14" fill="#0B1F2E"/>
  <rect x="0" y="28" width="1280" height="14" fill="#0B1F2E"/>
  <circle cx="24" cy="21" r="6" fill="#e86a8a"/><circle cx="44" cy="21" r="6" fill="#f2b75c"/><circle cx="64" cy="21" r="6" fill="#5fd3a2"/>
  <text x="640" y="26" text-anchor="middle" fill="#93A9B8" font-size="12.5">Routing matrix — prod-quality · Maestro IDE</text>

  <text x="48" y="96" fill="#E8F0F6" font-size="24" font-weight="650">Routing matrix</text>
  <text x="48" y="122" fill="#93A9B8" font-size="13">Active: <tspan fill="#3EAF86">prod-quality</tspan> · 12 rules · first match wins · fallbacks fail over automatically</text>
  <rect x="1040" y="76" width="192" height="38" rx="8" fill="#3EAF86"/>
  <text x="1136" y="100" text-anchor="middle" fill="#0d0a1f" font-size="13" font-weight="700">Test a request</text>

  <!-- table header -->
  <rect x="48" y="150" width="1184" height="40" rx="8" fill="#12293A"/>
  <text x="70" y="175" fill="#93A9B8" font-size="11" letter-spacing="1.5" font-family="ui-monospace, Menlo, monospace">TASK TYPE</text>
  <text x="330" y="175" fill="#93A9B8" font-size="11" letter-spacing="1.5" font-family="ui-monospace, Menlo, monospace">CONDITIONS</text>
  <text x="640" y="175" fill="#93A9B8" font-size="11" letter-spacing="1.5" font-family="ui-monospace, Menlo, monospace">PRIMARY MODEL</text>
  <text x="900" y="175" fill="#93A9B8" font-size="11" letter-spacing="1.5" font-family="ui-monospace, Menlo, monospace">FALLBACKS</text>

  <!-- rows -->
  <g font-size="13">
    <rect x="48" y="198" width="1184" height="52" rx="8" fill="#0B1F2E"/>
    <text x="70" y="230" fill="#E8F0F6" font-family="ui-monospace, Menlo, monospace" font-size="12.5">text-generation</text>
    <text x="330" y="230" fill="#93A9B8" font-size="12">context ≥ 32k · tag: eu-region</text>
    <text x="640" y="230" fill="#4fc3e8" font-size="12.5">claude-sonnet-5</text>
    <text x="900" y="230" fill="#93A9B8" font-size="12">mistral-large → llama-3.3-local</text>

    <rect x="48" y="258" width="1184" height="52" rx="8" fill="#071A28"/>
    <text x="70" y="290" fill="#E8F0F6" font-family="ui-monospace, Menlo, monospace" font-size="12.5">code-generation</text>
    <text x="330" y="290" fill="#93A9B8" font-size="12">latency: batch</text>
    <text x="640" y="290" fill="#4fc3e8" font-size="12.5">claude-fable-5</text>
    <text x="900" y="290" fill="#93A9B8" font-size="12">qwen-coder-local</text>

    <rect x="48" y="318" width="1184" height="52" rx="8" fill="#0B1F2E" stroke="#3EAF86" stroke-width="1.5"/>
    <text x="70" y="350" fill="#E8F0F6" font-family="ui-monospace, Menlo, monospace" font-size="12.5">image-generation</text>
    <text x="330" y="350" fill="#93A9B8" font-size="12">max cost: standard</text>
    <text x="640" y="350" fill="#4fc3e8" font-size="12.5">sdxl-turbo · local</text>
    <text x="900" y="350" fill="#93A9B8" font-size="12">stability-core → gpt-image</text>

    <rect x="48" y="378" width="1184" height="52" rx="8" fill="#071A28"/>
    <text x="70" y="410" fill="#E8F0F6" font-family="ui-monospace, Menlo, monospace" font-size="12.5">video-generation</text>
    <text x="330" y="410" fill="#93A9B8" font-size="12">—</text>
    <text x="640" y="410" fill="#4fc3e8" font-size="12.5">veo-3</text>
    <text x="900" y="410" fill="#93A9B8" font-size="12">runway-gen4</text>

    <rect x="48" y="438" width="1184" height="52" rx="8" fill="#0B1F2E"/>
    <text x="70" y="470" fill="#E8F0F6" font-family="ui-monospace, Menlo, monospace" font-size="12.5">tts</text>
    <text x="330" y="470" fill="#93A9B8" font-size="12">latency: realtime</text>
    <text x="640" y="470" fill="#4fc3e8" font-size="12.5">eleven-tts-v3</text>
    <text x="900" y="470" fill="#93A9B8" font-size="12">kokoro-local</text>

    <rect x="48" y="498" width="1184" height="52" rx="8" fill="#071A28"/>
    <text x="70" y="530" fill="#E8F0F6" font-family="ui-monospace, Menlo, monospace" font-size="12.5">stt</text>
    <text x="330" y="530" fill="#93A9B8" font-size="12">—</text>
    <text x="640" y="530" fill="#4fc3e8" font-size="12.5">whisper-large · local</text>
    <text x="900" y="530" fill="#93A9B8" font-size="12">deepgram-nova</text>

    <rect x="48" y="558" width="1184" height="52" rx="8" fill="#0B1F2E"/>
    <text x="70" y="590" fill="#E8F0F6" font-family="ui-monospace, Menlo, monospace" font-size="12.5">reward-scoring</text>
    <text x="330" y="590" fill="#93A9B8" font-size="12">tag: local-only</text>
    <text x="640" y="590" fill="#4fc3e8" font-size="12.5">paligemma-rhal · local</text>
    <text x="900" y="590" fill="#93A9B8" font-size="12">llm-judge (sonnet)</text>
  </g>

  <!-- test console result -->
  <rect x="48" y="646" width="1184" height="120" rx="10" fill="#020C16" stroke="#1B3242"/>
  <text x="70" y="676" fill="#5E7A8C" font-size="10.5" letter-spacing="2" font-family="ui-monospace, Menlo, monospace">TEST CONSOLE — no execution</text>
  <text x="70" y="704" fill="#93A9B8" font-size="12.5" font-family="ui-monospace, Menlo, monospace">request: "generate a product hero image" + tag max-cost:standard</text>
  <text x="70" y="730" fill="#5fd3a2" font-size="12.5" font-family="ui-monospace, Menlo, monospace">→ matched rule 3 (image-generation) → sdxl-turbo · local — cheapest eligible, cost tier ok, local tag ok</text>
  <text x="70" y="752" fill="#5E7A8C" font-size="11.5" font-family="ui-monospace, Menlo, monospace">rejected: stability-core (cost tier premium) · gpt-image (cost tier premium)</text>
</svg>
